<?xml version="1.0" standalone="no"?>
<!DOCTYPE svg PUBLIC "-//W3C//DTD SVG 20010904//EN"
 "http://www.w3.org/TR/2001/REC-SVG-20010904/DTD/svg10.dtd">
<svg version="1.0" xmlns="http://www.w3.org/2000/svg"
 width="2000.000000pt" height="2000.000000pt" viewBox="0 0 2000.000000 2000.000000"
 preserveAspectRatio="xMidYMid meet">
<metadata>
Created by potrace 1.15, written by Peter Selinger 2001-2017
</metadata>
<g transform="translate(0.000000,2000.000000) scale(0.100000,-0.100000)"
fill="#000000" stroke="none">
<path d="M9495 19994 c-455 -27 -838 -71 -1235 -140 -2494 -435 -4742 -1818
-6271 -3859 -1059 -1413 -1716 -3057 -1924 -4810 -53 -455 -60 -580 -60 -1185
0 -605 7 -730 60 -1185 324 -2742 1760 -5210 3995 -6867 847 -628 1818 -1129
2820 -1456 838 -274 1688 -433 2570 -482 238 -13 862 -13 1100 0 2401 133
4652 1112 6380 2775 1091 1049 1920 2310 2445 3715 280 751 465 1516 560 2315
53 455 60 580 60 1185 0 605 -7 730 -60 1185 -238 2013 -1078 3896 -2419 5420
-1587 1804 -3762 2977 -6126 3304 -483 67 -724 83 -1315 86 -286 1 -547 1
-580 -1z m-2750 -2880 c747 -30 1362 -58 1365 -62 4 -4 -20 -630 -51 -1392
-32 -762 -58 -1419 -59 -1460 l0 -75 -327 -300 c-179 -165 -522 -481 -762
-702 -374 -345 -436 -399 -439 -379 -2 13 15 470 38 1016 23 546 40 1003 38
1016 -3 22 -11 17 -108 -55 -356 -268 -714 -612 -1001 -961 -728 -888 -1185
-1964 -1313 -3090 -54 -482 -46 -1039 24 -1516 21 -142 88 -485 115 -584 8
-30 13 -55 12 -56 -1 -1 -297 -79 -657 -174 -360 -95 -663 -175 -672 -177 -19
-6 -22 1 -73 222 -327 1415 -210 2940 331 4302 313 789 752 1504 1328 2163
207 236 595 610 821 792 37 29 63 53 58 55 -4 1 -375 16 -823 33 -448 17 -842
34 -874 38 l-59 7 762 703 762 703 102 -6 c56 -3 714 -31 1462 -61z m5449
-146 c1357 -425 2554 -1235 3462 -2343 778 -949 1318 -2119 1535 -3327 17 -95
32 -174 33 -175 0 -1 213 333 471 742 259 408 472 741 475 739 2 -3 106 -458
230 -1012 l227 -1006 -76 -120 c-42 -66 -394 -622 -782 -1235 -422 -665 -713
-1116 -721 -1115 -10 1 -2429 1524 -2475 1558 -4 3 -454 2018 -451 2021 1 2
396 -246 877 -551 481 -305 876 -552 879 -549 7 6 -17 195 -48 382 -250 1492
-1066 2835 -2275 3746 -547 412 -1183 735 -1835 932 -80 24 -144 47 -144 52 2
11 354 1305 359 1321 6 18 26 13 259 -60z m-3766 -11075 c540 -168 979 -310
975 -314 -5 -4 -406 -215 -893 -469 -487 -255 -898 -471 -914 -481 l-30 -17
40 -17 c619 -268 1190 -416 1854 -482 243 -24 846 -24 1080 0 706 72 1298 230
1920 512 555 251 1138 643 1581 1064 54 50 101 91 107 91 5 0 228 -221 496
-490 l487 -491 -98 -93 c-1104 -1047 -2488 -1720 -3978 -1935 -1013 -146
-2076 -78 -3032 195 -181 51 -464 143 -572 186 -40 16 -77 28 -81 26 -4 -2
175 -352 399 -778 224 -426 404 -776 401 -777 -3 -1 -448 136 -990 306 l-985
307 -682 1299 c-375 715 -679 1302 -677 1305 12 12 2580 1358 2594 1359 8 1
457 -137 998 -306z"/>
</g>
</svg>
